<svg xmlns="http://www.w3.org/2000/svg" width="128" height="128" viewBox="0 0 128 128" fill="none">
  <defs>
    <linearGradient id="backTop" x1="22" y1="8" x2="98" y2="86" gradientUnits="userSpaceOnUse">
      <stop stop-color="#35D6CD" />
      <stop offset="1" stop-color="#28A5D9" />
    </linearGradient>
    <linearGradient id="backMid" x1="14" y1="19" x2="92" y2="98" gradientUnits="userSpaceOnUse">
      <stop stop-color="#96F16C" />
      <stop offset="1" stop-color="#4ED18C" />
    </linearGradient>
    <linearGradient id="frontCard" x1="8" y1="29" x2="92" y2="118" gradientUnits="userSpaceOnUse">
      <stop stop-color="#5BB7FF" />
      <stop offset="0.55" stop-color="#4C86F6" />
      <stop offset="1" stop-color="#7B3EF0" />
    </linearGradient>
    <filter id="shadow" x="0" y="0" width="128" height="128" color-interpolation-filters="sRGB">
      <feOffset dy="2" />
      <feGaussianBlur stdDeviation="3" />
      <feColorMatrix type="matrix" values="0 0 0 0 0 0 0 0 0 0.07 0 0 0 0 0.2 0 0 0 0.3 0" />
      <feBlend in2="SourceGraphic" result="shape" />
    </filter>
  </defs>

  <g filter="url(#shadow)">
    <rect x="36" y="8" width="84" height="92" rx="18" fill="url(#backTop)" />
    <path d="M92 100H120V72L92 100Z" fill="#F79A36" />

    <rect x="22" y="19" width="84" height="92" rx="18" fill="url(#backMid)" />

    <rect x="8" y="29" width="84" height="92" rx="18" fill="url(#frontCard)" />
    <path d="M64 121H92V93L64 121Z" fill="#9B72FF" opacity="0.75" />

    <path
      d="M30 74C28.7 72.7 28.7 70.6 30 69.3L37.3 62C38.6 60.7 40.7 60.7 42 62L51.7 71.7L72.6 50.8C73.9 49.5 76 49.5 77.3 50.8L84.6 58.1C85.9 59.4 85.9 61.5 84.6 62.8L55.5 91.9C54.2 93.2 52.1 93.2 50.8 91.9L30 74Z"
      fill="white"
    />
  </g>
</svg>
